<svg width="34" height="48" viewBox="0 0 34 48" fill="none" xmlns="http://www.w3.org/2000/svg">
    <path d="M16.625 22.5625C15.0503 22.5625 13.5401 21.9369 12.4266 20.8234C11.3131 19.7099 10.6875 18.1997 10.6875 16.625C10.6875 15.0503 11.3131 13.5401 12.4266 12.4266C13.5401 11.3131 15.0503 10.6875 16.625 10.6875C18.1997 10.6875 19.7099 11.3131 20.8234 12.4266C21.9369 13.5401 22.5625 15.0503 22.5625 16.625C22.5625 17.4047 22.4089 18.1768 22.1105 18.8972C21.8121 19.6176 21.3748 20.2721 20.8234 20.8234C20.2721 21.3748 19.6176 21.8121 18.8972 22.1105C18.1768 22.4089 17.4047 22.5625 16.625 22.5625ZM16.625 0C12.2158 0 7.98714 1.75156 4.86935 4.86935C1.75156 7.98714 0 12.2158 0 16.625C0 29.0938 16.625 47.5 16.625 47.5C16.625 47.5 33.25 29.0938 33.25 16.625C33.25 12.2158 31.4984 7.98714 28.3806 4.86935C25.2629 1.75156 21.0342 0 16.625 0Z" fill="#D38878"/>
</svg>
