<svg xmlns="http://www.w3.org/2000/svg" fill="none" viewBox="43.58 32.89 695.71 170.3">
<path d="M565.144 203L565.464 202.232C566.424 202.232 567.512 201.784 568.28 197.496L572.056 176.248C572.76 171.96 571.8 171.768 570.84 171.768L570.776 171H583.512C589.336 171 592.6 174.84 591.768 179.512C591.32 181.944 589.72 184.056 587.608 185.656C590.744 186.936 592.664 189.624 592.024 193.336C590.744 200.376 585.304 203 579.352 203H565.144ZM578.264 184.952H578.456C581.08 184.824 583.96 183.032 584.6 179.512C585.24 175.928 583 174.2 580.12 174.136L578.264 184.952ZM575.64 199.864H577.496C580.696 199.672 583.256 197.944 583.96 194.04C584.664 189.944 582.424 188.088 578.968 188.088H577.688L575.64 199.864ZM609.615 171.768C608.655 171.768 607.631 171.96 606.799 176.312L604.751 188.152L603.087 197.432C602.319 201.784 603.279 202.232 604.239 202.232L604.303 203H592.206L592.526 202.232C593.422 202.232 594.575 201.784 595.343 197.496L599.055 176.248C599.823 171.96 598.799 171.768 597.903 171.768L597.839 171H609.935L609.615 171.768ZM621.135 171.768C620.175 171.768 618.831 172.216 615.887 176.504L610.958 183.608L615.567 197.432C617.039 201.784 618.255 202.232 619.151 202.232L619.599 203H607.503L607.439 202.232C608.399 202.232 609.231 201.784 607.823 197.496L605.775 191.224L604.751 188.152L609.935 180.536L612.687 176.568C615.631 172.216 614.927 171.768 614.031 171.768L614.351 171H621.775L621.135 171.768ZM631.016 203L631.784 199.864C636.008 189.88 644.136 183.736 646.376 179.768C647.976 176.952 647.272 174.328 644.328 173.944C640.744 173.496 638.568 177.336 640.36 179.128C637.032 180.216 634.664 178.04 635.816 175.096C636.904 172.344 640.552 170.232 645.8 171C653.48 172.088 654.376 179.576 652.328 184.12C649.384 190.584 638.312 198.264 637.864 199.864H642.6C649 199.864 650.536 193.592 650.536 193.592H651.88L650.28 203H631.016ZM662.639 203.192C655.151 203.192 652.974 195.896 654.703 186.936C656.431 177.976 661.487 170.68 668.975 170.68C676.527 170.68 678.511 177.976 676.719 186.936C674.927 195.896 670.127 203.192 662.639 203.192ZM664.111 200.696C666.927 200.568 667.247 194.232 668.207 186.616C669.103 179.064 670.255 172.984 667.503 173.176C664.687 173.368 664.175 179.64 663.215 187.256C662.383 194.872 661.423 200.888 664.111 200.696ZM675.391 203L676.159 199.864C680.383 189.88 688.511 183.736 690.751 179.768C692.351 176.952 691.647 174.328 688.703 173.944C685.119 173.496 682.943 177.336 684.735 179.128C681.407 180.216 679.039 178.04 680.191 175.096C681.279 172.344 684.927 170.232 690.175 171C697.855 172.088 698.751 179.576 696.703 184.12C693.759 190.584 682.687 198.264 682.239 199.864H686.975C693.375 199.864 694.911 193.592 694.911 193.592H696.255L694.655 203H675.391ZM709.574 203.128C702.406 203.128 697.669 196.408 699.142 188.536C701.126 178.104 710.342 170.36 718.662 170.744C720.966 170.872 724.358 171.768 724.166 174.392C724.038 176.568 721.222 177.336 719.686 176.824C720.966 176.056 720.774 173.048 717.894 173.048C714.182 173.048 712.134 177.208 711.494 180.088C718.918 177.656 726.278 183.736 724.614 191.416C723.206 197.944 716.742 203.128 709.574 203.128ZM710.086 201.336C712.774 201.272 715.014 196.664 715.91 191.224C716.742 185.784 715.91 181.432 713.286 181.56C710.598 181.688 708.678 186.232 707.782 191.672C707.014 197.176 707.526 201.464 710.086 201.336Z" fill="#5C4146"/>
<path d="M263.884 110.88C300.524 124 301.644 172.8 258.444 185.6C235.564 192.32 218.124 184.96 211.084 172C202.924 156.8 219.244 136 236.364 142.56C216.524 154.24 226.764 181.28 245.644 180.48C267.564 179.52 272.524 151.36 265.644 133.6C260.524 120.48 245.964 111.52 230.604 110.4L231.084 108.64C231.724 108.48 232.364 108.48 233.004 108.32C285.004 99.84 279.564 54.08 261.964 46.88C228.204 33.12 187.564 61.28 198.764 96.16C177.484 93.6 176.204 70.24 186.924 55.68C205.324 30.4 251.404 29.92 272.684 44.96C305.644 68.48 294.124 103.52 263.884 110.88ZM261.324 48.8C215.724 61.28 239.724 182.24 155.244 182.24C141.804 182.24 124.524 177.12 113.004 157.28C100.204 136 112.844 89.76 155.244 90.72C201.004 91.84 196.044 145.44 163.884 135.52C175.724 130.4 173.804 102.88 160.204 100.48C146.924 98.08 133.644 109.12 132.844 134.08C131.884 160.64 143.884 172.8 159.084 172.8C213.324 172.48 190.444 48.32 261.324 48.8ZM328.164 152.48C309.444 152.48 297.924 134.24 302.244 111.84C306.564 89.44 325.284 71.2 344.004 71.2C362.884 71.2 374.404 89.44 369.924 111.84C365.444 134.24 346.884 152.48 328.164 152.48ZM331.844 146.24C338.884 145.92 346.244 130.08 348.644 111.04C350.884 92.16 347.204 76.96 340.324 77.44C333.284 77.92 325.924 93.6 323.524 112.64C321.444 131.68 325.124 146.72 331.844 146.24ZM374.493 152L375.293 150.08C377.533 150.08 380.413 148.96 382.333 138.24L386.493 114.56L380.413 85.28C378.173 74.4 375.453 73.92 373.053 73.92L372.253 72H402.493L402.333 73.92C400.093 73.92 397.533 74.4 399.773 85.12L403.773 104.32L414.173 85.76C420.253 75.04 418.173 73.92 415.933 73.92L416.573 72H435.133L433.693 73.92C431.293 73.92 428.093 75.04 422.013 85.92L405.853 114.56L401.693 138.08C399.933 148.96 402.333 150.08 404.573 150.08L404.733 152H374.493ZM450.82 152.48C432.1 152.48 420.58 134.24 424.9 111.84C429.22 89.44 447.94 71.2 466.66 71.2C485.54 71.2 497.06 89.44 492.58 111.84C488.1 134.24 469.54 152.48 450.82 152.48ZM454.5 146.24C461.54 145.92 468.9 130.08 471.3 111.04C473.54 92.16 469.86 76.96 462.98 77.44C455.94 77.92 448.58 93.6 446.18 112.64C444.1 131.68 447.78 146.72 454.5 146.24ZM490.36 152L491 150.08C493.4 150.08 496.12 148.96 498.04 138.24L507.48 85.12C509.24 74.4 506.84 73.92 504.44 73.92V72H534.52L533.88 73.92C531.48 73.92 528.76 74.4 526.84 85.28L517.56 138.08C517.08 140.64 516.92 142.56 516.92 144.16H524.92C540.92 144.16 544.76 128.48 544.76 128.48H548.12L544.12 152H490.36ZM548.954 152L550.074 150.08C552.474 150.08 555.514 148.96 559.834 138.24L581.114 85.76C585.434 75.04 583.354 73.92 580.954 73.92L581.274 72H612.154L611.834 73.92C609.434 73.92 606.874 74.4 607.034 85.12L607.994 138.24C608.154 148.96 610.714 150.08 613.114 150.08L613.594 152H583.354L583.834 150.08C586.074 150.08 588.634 148.96 588.474 138.08V134.88H569.114L567.834 138.08C563.354 148.96 565.594 150.08 567.834 150.08L567.514 152H548.954ZM572.314 127.04H588.314L587.674 89.44L572.314 127.04ZM618.329 152L618.969 150.08C621.369 150.08 624.089 148.96 626.009 138.24L635.449 85.12C637.209 74.4 634.809 73.92 632.409 73.92V72H662.489L661.849 73.92C659.449 73.92 656.729 74.4 654.809 85.28L645.529 138.08C645.049 140.64 644.889 142.56 644.889 144.16H652.889C668.889 144.16 672.729 128.48 672.729 128.48H676.089L672.089 152H618.329ZM676.922 152L677.562 150.08C679.962 150.08 682.683 148.96 684.763 138.24L694.043 85.12C695.963 74.4 693.403 73.92 691.003 73.92V72H721.243L720.443 73.92C718.043 73.92 715.323 74.4 713.403 85.28L704.123 138.08C702.203 148.96 704.603 150.08 707.003 150.08V152H676.922ZM718.643 132.8L724.083 78.56C724.883 74.56 728.563 72 732.883 72C736.562 72 740.082 74.4 739.123 78.56L725.683 132.8H718.643ZM718.643 152C714.962 152 712.402 148.96 713.202 145.28C713.842 141.44 717.363 138.4 721.043 138.4C724.883 138.4 727.283 141.44 726.643 145.28C726.003 148.96 722.483 152 718.643 152Z" fill="#D38878"/>
<path d="M59.08 46.096H55.792L53.32 38.2L50.8 46.096H47.536L43.576 33.136H47.272L49.336 40.936L51.76 33.088H54.904L57.352 40.96L59.464 33.136H63.088L59.08 46.096ZM76.6945 39.928C76.6945 40.288 76.6705 40.504 76.6465 40.84H67.6945C68.0545 42.496 69.2065 43.36 70.8385 43.36C72.0625 43.36 72.9505 42.976 73.9585 42.04L76.0465 43.888C74.8465 45.376 73.1185 46.288 70.7905 46.288C66.9265 46.288 64.0705 43.576 64.0705 39.64V39.592C64.0705 35.92 66.6865 32.896 70.4305 32.896C74.7265 32.896 76.6945 36.232 76.6945 39.88V39.928ZM73.1425 38.56C72.9265 36.928 71.9665 35.824 70.4305 35.824C68.9185 35.824 67.9345 36.904 67.6465 38.56H73.1425ZM94.1446 46V44.608C93.2566 45.592 92.0326 46.24 90.2566 46.24C87.8326 46.24 85.8406 44.848 85.8406 42.304V42.256C85.8406 39.448 87.9766 38.152 91.0246 38.152C92.3206 38.152 93.2566 38.368 94.1686 38.68V38.464C94.1686 36.952 93.2326 36.112 91.4086 36.112C90.0166 36.112 89.0326 36.376 87.8566 36.808L86.9446 34.024C88.3606 33.4 89.7526 32.992 91.9366 32.992C95.9206 32.992 97.6726 35.056 97.6726 38.536V46H94.1446ZM94.2166 40.816C93.5926 40.528 92.7766 40.336 91.8886 40.336C90.3286 40.336 89.3686 40.96 89.3686 42.112V42.16C89.3686 43.144 90.1846 43.72 91.3606 43.72C93.0646 43.72 94.2166 42.784 94.2166 41.464V40.816ZM108.372 36.712C105.948 36.712 104.46 38.176 104.46 41.248V46H100.812V33.136H104.46V35.728C105.204 33.952 106.404 32.8 108.564 32.896V36.712H108.372ZM122.491 39.928C122.491 40.288 122.467 40.504 122.443 40.84H113.491C113.851 42.496 115.003 43.36 116.635 43.36C117.859 43.36 118.747 42.976 119.755 42.04L121.843 43.888C120.643 45.376 118.915 46.288 116.587 46.288C112.723 46.288 109.867 43.576 109.867 39.64V39.592C109.867 35.92 112.483 32.896 116.227 32.896C120.523 32.896 122.491 36.232 122.491 39.88V39.928ZM118.939 38.56C118.723 36.928 117.763 35.824 116.227 35.824C114.715 35.824 113.731 36.904 113.443 38.56H118.939ZM57.568 70.096C57.568 74.944 55.168 76.888 50.392 76.888C48.304 76.888 46.336 76.408 44.704 75.544L45.952 72.808C47.272 73.552 48.592 73.984 50.296 73.984C52.792 73.984 53.968 72.784 53.968 70.48V69.856C52.888 71.152 51.712 71.944 49.768 71.944C46.768 71.944 44.056 69.76 44.056 65.944V65.896C44.056 62.056 46.816 59.896 49.768 59.896C51.76 59.896 52.936 60.736 53.92 61.816V60.136H57.568V70.096ZM53.968 65.896C53.968 64.144 52.6 62.92 50.824 62.92C49.048 62.92 47.704 64.144 47.704 65.896V65.944C47.704 67.72 49.048 68.92 50.824 68.92C52.6 68.92 53.968 67.696 53.968 65.944V65.896ZM74.1233 66.592C74.1233 70.288 71.1473 73.288 67.1393 73.288C63.1553 73.288 60.2033 70.336 60.2033 66.64V66.592C60.2033 62.896 63.1793 59.896 67.1873 59.896C71.1713 59.896 74.1233 62.848 74.1233 66.544V66.592ZM70.5233 66.592C70.5233 64.696 69.1553 63.04 67.1393 63.04C65.0513 63.04 63.8033 64.648 63.8033 66.544V66.592C63.8033 68.488 65.1713 70.144 67.1873 70.144C69.2753 70.144 70.5233 68.536 70.5233 66.64V66.592ZM76.8368 58.72V55.48H80.6768V58.72H76.8368ZM76.9328 73V60.136H80.5808V73H76.9328ZM92.143 73V65.824C92.143 64.096 91.327 63.208 89.935 63.208C88.543 63.208 87.655 64.096 87.655 65.824V73H84.007V60.136H87.655V61.96C88.495 60.88 89.575 59.896 91.423 59.896C94.183 59.896 95.791 61.72 95.791 64.672V73H92.143ZM111.896 70.096C111.896 74.944 109.496 76.888 104.72 76.888C102.632 76.888 100.664 76.408 99.0321 75.544L100.28 72.808C101.6 73.552 102.92 73.984 104.624 73.984C107.12 73.984 108.296 72.784 108.296 70.48V69.856C107.216 71.152 106.04 71.944 104.096 71.944C101.096 71.944 98.3841 69.76 98.3841 65.944V65.896C98.3841 62.056 101.144 59.896 104.096 59.896C106.088 59.896 107.264 60.736 108.248 61.816V60.136H111.896V70.096ZM108.296 65.896C108.296 64.144 106.928 62.92 105.152 62.92C103.376 62.92 102.032 64.144 102.032 65.896V65.944C102.032 67.72 103.376 68.92 105.152 68.92C106.928 68.92 108.296 67.696 108.296 65.944V65.896ZM129.575 72.472C128.807 72.928 127.919 73.216 126.695 73.216C124.463 73.216 122.951 72.328 122.951 69.352V63.256H121.415V60.136H122.951V56.848H126.599V60.136H129.623V63.256H126.599V68.752C126.599 69.592 126.959 70 127.775 70C128.447 70 129.047 69.832 129.575 69.544V72.472ZM145.256 66.592C145.256 70.288 142.28 73.288 138.272 73.288C134.288 73.288 131.336 70.336 131.336 66.64V66.592C131.336 62.896 134.312 59.896 138.32 59.896C142.304 59.896 145.256 62.848 145.256 66.544V66.592ZM141.656 66.592C141.656 64.696 140.288 63.04 138.272 63.04C136.184 63.04 134.936 64.648 134.936 66.544V66.592C134.936 68.488 136.304 70.144 138.32 70.144C140.408 70.144 141.656 68.536 141.656 66.64V66.592ZM147.285 73V69.16H151.173V73H147.285ZM154.152 73V69.16H158.04V73H154.152ZM161.019 73V69.16H164.907V73H161.019Z" fill="#5C4146"/>
</svg>