<svg xmlns="http://www.w3.org/2000/svg" fill="none" viewBox="6.07 20.74 549.43 193.12">
<path d="M144.768 211.584C98.6881 227.328 102.016 156.672 93.0561 152.32C87.4241 178.688 79.8721 206.464 42.2401 206.464C31.4881 206.464 17.1521 205.44 9.21611 190.208C0.000104904 172.416 11.2641 142.464 39.6801 143.232C76.1601 144.256 73.2161 186.88 47.3601 178.944C59.0081 173.824 56.1921 152.32 43.7761 150.912C32.8961 149.632 25.2161 161.536 24.9601 171.52C24.4481 192.128 34.5601 199.68 45.3121 198.912C83.3281 196.224 65.9201 126.336 100.096 110.208C96.3841 109.824 92.6721 108.928 89.0881 108.032C77.9521 105.216 67.4561 102.528 59.0081 105.984C40.3201 113.664 51.4561 141.44 71.2961 133.376C59.3921 149.76 38.9121 138.88 38.6561 121.984C38.5281 114.816 41.7281 108.16 48.5121 103.68C62.4641 94.464 78.7201 101.504 92.6721 106.112C97.2801 107.648 101.248 108.288 104.832 108.416C108.416 107.392 112.384 106.752 116.992 106.88H116.864C114.944 108.032 113.024 108.928 110.976 109.44C100.224 116.352 97.1521 132.992 93.4401 150.656C103.808 147.072 109.952 136.576 116.224 127.872C124.16 116.864 136.192 103.04 150.144 105.984C127.872 111.744 118.4 151.936 94.9761 151.552C115.456 157.184 121.728 208.64 144.768 211.584ZM126.096 192L126.992 190.464C128.912 190.464 131.344 189.568 134.8 180.992L151.824 139.008C155.28 130.432 153.616 129.536 151.696 129.536L151.952 128H176.656L176.4 129.536C174.48 129.536 172.432 129.92 172.56 138.496L173.328 180.992C173.456 189.568 175.504 190.464 177.424 190.464L177.808 192H153.616L154 190.464C155.792 190.464 157.84 189.568 157.712 180.864V178.304H142.224L141.2 180.864C137.616 189.568 139.408 190.464 141.2 190.464L140.944 192H126.096ZM144.784 172.032H157.584L157.072 141.952L144.784 172.032ZM181.596 192L182.108 190.464C184.028 190.464 186.204 189.568 187.868 180.992L195.292 139.008C196.7 130.432 194.78 129.536 192.86 129.536V128H207.708C209.5 128 213.34 128.768 214.492 135.424L219.868 171.776L237.66 136.32C241.372 129.024 245.852 128 247.516 128H261.084L260.444 129.536C258.524 129.536 256.348 129.92 254.812 138.624L247.388 180.864C245.852 189.568 247.772 190.464 249.692 190.464L249.82 192H225.628L226.268 190.464C228.06 190.464 230.364 189.568 231.9 180.992L237.532 148.864C237.532 148.864 221.404 181.248 221.148 181.504C217.18 189.696 218.844 190.464 220.636 190.464L220.252 192C209.628 192 207.068 190.08 205.66 181.504L200.412 145.408L194.14 180.864C192.604 189.568 194.524 190.464 196.444 190.464V192H181.596ZM253.721 192L254.361 190.464C256.153 190.464 258.457 189.568 259.993 180.992L267.545 138.496C268.953 129.92 267.033 129.536 265.113 129.536L264.985 128H293.401C305.305 128 313.241 133.888 310.809 147.968C308.377 161.792 295.193 166.144 280.857 166.144H278.169L275.481 180.864C274.073 189.568 275.993 190.464 277.785 190.464L277.913 192H253.721ZM279.193 159.872H281.753C288.665 159.872 294.681 154.88 296.089 146.688C297.497 138.88 293.657 134.656 287.385 134.272H283.801L279.193 159.872ZM333.214 192.384C318.238 192.384 309.022 177.792 312.478 159.872C315.934 141.952 330.91 127.36 345.886 127.36C360.99 127.36 370.206 141.952 366.622 159.872C363.038 177.792 348.19 192.384 333.214 192.384ZM336.158 187.392C341.79 187.136 347.678 174.464 349.598 159.232C351.39 144.128 348.446 131.968 342.942 132.352C337.31 132.736 331.422 145.28 329.502 160.512C327.838 175.744 330.782 187.776 336.158 187.392ZM364.846 192L365.486 190.464C367.406 190.464 369.582 189.568 371.118 180.992L378.67 138.496C380.078 129.92 378.158 129.536 376.238 129.536L376.11 128H416.43L414.126 141.056H411.438C411.438 141.056 413.102 134.528 406.574 134.272H394.798L390.574 158.464H393.134C399.79 158.208 400.43 151.68 400.43 151.68H403.118L399.662 171.52H396.974C396.974 171.52 398.638 164.992 391.982 164.736H389.422L385.838 185.728H392.494C405.422 185.728 408.494 173.184 408.494 173.184H411.182L407.982 192H364.846ZM411.846 192L412.358 190.464C414.278 190.464 416.454 189.568 418.118 180.992L425.542 139.008C426.95 130.432 425.03 129.536 423.11 129.536V128H437.958C439.75 128 443.59 128.768 444.742 135.424L449.734 169.728L455.11 139.008C456.646 130.432 454.726 129.536 452.806 129.536V128H467.654L467.014 129.536C465.222 129.536 463.046 130.432 461.382 139.136L453.958 180.864C452.55 189.568 454.47 190.464 456.262 190.464L456.39 192H451.654C438.982 192 437.19 189.952 435.91 181.504L430.662 145.408L424.39 180.864C422.854 189.568 424.774 190.464 426.694 190.464V192H411.846ZM487.033 192.768C473.081 192.768 459.641 182.656 463.225 161.024C466.425 140.8 482.681 125.952 500.857 126.976C510.841 127.488 511.097 135.04 515.065 133.504L515.705 135.168C509.049 139.904 503.161 148.096 503.161 148.096L501.625 146.56C505.337 141.696 505.465 133.376 500.729 132.736C494.713 131.712 485.497 138.624 481.401 161.664C478.713 177.152 482.937 187.392 489.337 186.88C492.153 186.624 493.689 182.016 494.457 178.048L495.225 173.952C496.761 165.376 494.713 165.12 492.793 165.12L492.921 162.432H512.889C512.889 162.432 512.761 162.816 511.225 170.88L509.945 178.304C508.793 185.088 503.929 189.952 495.353 191.872C493.177 192.384 490.361 192.64 487.033 192.768ZM522.449 176.64C524.753 163.2 537.937 155.776 543.057 145.408C545.873 139.904 544.465 133.76 538.705 133.76C530.769 133.76 527.057 145.408 532.689 149.632C524.369 153.344 519.505 149.632 520.913 141.824C522.321 133.248 531.025 128 539.473 128C552.401 128 559.697 139.776 552.913 151.296C546.513 162.304 535.889 164.992 529.617 176.64H522.449ZM523.217 192C520.145 192 518.225 189.568 518.737 186.624C519.249 183.552 522.065 181.12 525.137 181.12C528.081 181.12 530.129 183.552 529.489 186.624C528.977 189.568 526.161 192 523.217 192Z" fill="#5C4146"/>
<path d="M278.232 66.328C300.216 74.2 300.888 103.48 274.968 111.16C261.24 115.192 250.776 110.776 246.552 103C241.656 93.88 251.448 81.4 261.72 85.336C249.816 92.344 255.96 108.568 267.288 108.088C280.44 107.512 283.416 90.616 279.288 79.96C276.216 72.088 267.48 66.712 258.264 66.04L258.552 64.984C258.936 64.888 259.32 64.888 259.704 64.792C290.904 59.704 287.64 32.248 277.08 27.928C256.824 19.672 232.44 36.568 239.16 57.496C226.392 55.96 225.624 41.944 232.056 33.208C243.096 18.04 270.744 17.752 283.512 26.776C303.288 40.888 296.376 61.912 278.232 66.328ZM276.696 29.08C249.336 36.568 263.736 109.144 213.048 109.144C204.984 109.144 194.616 106.072 187.704 94.168C180.024 81.4 187.608 53.656 213.048 54.232C240.504 54.904 237.528 87.064 218.232 81.112C225.336 78.04 224.184 61.528 216.024 60.088C208.056 58.648 200.088 65.272 199.608 80.248C199.032 96.184 206.232 103.48 215.352 103.48C247.896 103.288 234.168 28.792 276.696 29.08ZM297.024 91L297.696 89.848C299.136 89.848 300.96 89.176 303.552 82.744L316.32 51.256C318.912 44.824 317.664 44.152 316.224 44.152L316.416 43H334.944L334.752 44.152C333.312 44.152 331.776 44.44 331.872 50.872L332.448 82.744C332.544 89.176 334.08 89.848 335.52 89.848L335.808 91H317.664L317.952 89.848C319.296 89.848 320.832 89.176 320.736 82.648V80.728H309.12L308.352 82.648C305.664 89.176 307.008 89.848 308.352 89.848L308.16 91H297.024ZM311.04 76.024H320.64L320.256 53.464L311.04 76.024ZM338.649 91L339.033 89.848C340.473 89.848 342.105 89.176 343.257 82.744L348.921 50.872C349.977 44.44 348.537 44.152 347.097 44.152V43H365.145L364.761 44.152C363.321 44.152 361.689 44.44 360.537 50.968L354.969 82.648C354.681 84.184 354.585 85.336 354.585 86.296H359.385C368.985 86.296 371.289 76.888 371.289 76.888H373.305L370.905 91H338.649ZM373.805 91L374.189 89.848C375.629 89.848 377.261 89.176 378.509 82.744L384.077 50.872C385.229 44.44 383.693 44.152 382.253 44.152V43H400.397L399.917 44.152C398.477 44.152 396.845 44.44 395.693 50.968L390.125 82.648C388.973 89.176 390.413 89.848 391.853 89.848V91H373.805ZM420.917 44.152C419.477 44.152 417.941 44.44 416.693 50.968L413.621 68.728L411.125 82.648C409.973 89.176 411.413 89.848 412.853 89.848L412.949 91H394.805L395.285 89.848C396.629 89.848 398.357 89.176 399.509 82.744L405.077 50.872C406.229 44.44 404.693 44.152 403.349 44.152L403.253 43H421.397L420.917 44.152ZM438.197 44.152C436.757 44.152 434.741 44.824 430.325 51.256L422.933 61.912L429.845 82.648C432.053 89.176 433.877 89.848 435.221 89.848L435.893 91H417.749L417.653 89.848C419.093 89.848 420.341 89.176 418.229 82.744L415.157 73.336L413.621 68.728L421.397 57.304L425.525 51.352C429.941 44.824 428.885 44.152 427.541 44.152L428.021 43H439.157L438.197 44.152Z" fill="#5C4146"/>
<path d="M127.104 45.16H122.816L117.76 30.504L112.704 45.16H108.416L100.768 22.6H106.048L110.688 37.768L115.712 22.536H119.936L124.96 37.768L129.6 22.6H134.752L127.104 45.16ZM152.418 45V36.008H143.33V45H138.402V22.6H143.33V31.464H152.418V22.6H157.346V45H152.418ZM179.387 45L177.339 39.976H167.867L165.819 45H160.795L170.395 22.44H174.939L184.539 45H179.387ZM172.603 28.36L169.627 35.624H175.579L172.603 28.36ZM195.265 27.144V45H190.337V27.144H183.521V22.6H202.081V27.144H195.265ZM102.72 80V57.6H107.648V80H102.72ZM129.438 73.376C129.438 77.824 126.046 80.32 121.214 80.32C117.822 80.32 114.398 79.136 111.71 76.736L114.622 73.248C116.638 74.912 118.75 75.968 121.31 75.968C123.326 75.968 124.542 75.168 124.542 73.856V73.792C124.542 72.544 123.774 71.904 120.03 70.944C115.518 69.792 112.606 68.544 112.606 64.096V64.032C112.606 59.968 115.87 57.28 120.446 57.28C123.71 57.28 126.494 58.304 128.766 60.128L126.206 63.84C124.222 62.464 122.27 61.632 120.382 61.632C118.494 61.632 117.502 62.496 117.502 63.584V63.648C117.502 65.12 118.462 65.6 122.334 66.592C126.878 67.776 129.438 69.408 129.438 73.312V73.376Z" fill="#5C4146"/>
</svg>